<svg xmlns="http://www.w3.org/2000/svg" viewBox="0 0 120 150" x="0px" y="0px"><title>Loss</title><path d="M38.75,10A28.75,28.75,0,1,0,67.5,38.75,28.78,28.78,0,0,0,38.75,10Zm0,55A26.25,26.25,0,1,1,65,38.75,26.25,26.25,0,0,1,38.75,65Z"/><path d="M99.94,80.95V10H75.06V80.95H65L87.5,110,110,80.95ZM70.1,83.45h7.46V12.5H97.44V83.45h7.46L87.5,105.92Z"/><path d="M40.3,36.83c-3.15-1.2-4.6-2.1-4.6-4.1,0-1.8,1.45-3.3,4.05-3.3a9.42,9.42,0,0,1,4.95,1.4l1.1-3.2a12,12,0,0,0-5.8-1.5V23.75H37.5v2.62c-3.78.81-6,3.59-6,6.86,0,2.9,2.05,5.3,6.4,6.85,3.25,1.2,4.5,2.35,4.5,4.45s-1.5,3.6-4.7,3.6a11.53,11.53,0,0,1-5.8-1.75l-1.1,3.35a13.76,13.76,0,0,0,6.7,1.65v2.38H40V51.18c4.26-.73,6.65-3.44,6.65-7.05S44.5,38.42,40.3,36.83Z"/><text x="0" y="135" fill="#000000" font-size="5px" font-weight="bold" font-family="'Helvetica Neue', Helvetica, Arial-Unicode, Arial, Sans-serif">Created by Jae Deasigner</text><text x="0" y="140" fill="#000000" font-size="5px" font-weight="bold" font-family="'Helvetica Neue', Helvetica, Arial-Unicode, Arial, Sans-serif">from the Noun Project</text></svg>